<svg width="27" height="24" viewBox="0 0 27 24" fill="none" xmlns="http://www.w3.org/2000/svg">
<path d="M2.22867 6C2.22867 4.11438 2.22867 3.17157 2.88143 2.58579C3.53418 2 4.58478 2 6.68599 2C8.78719 2 9.83779 2 10.4905 2.58579C11.1433 3.17157 11.1433 4.11438 11.1433 6V8C11.1433 9.88562 11.1433 10.8284 10.4905 11.4142C9.83779 12 8.78719 12 6.68599 12C4.58478 12 3.53418 12 2.88143 11.4142C2.22867 10.8284 2.22867 9.88562 2.22867 8V6Z" stroke="black" stroke-width="1.5"/>
<path d="M2.22867 19C2.22867 18.0681 2.22867 17.6022 2.39831 17.2346C2.62451 16.7446 3.05838 16.3552 3.60445 16.1522C4.01402 16 4.53323 16 5.57166 16H7.80031C8.83874 16 9.35795 16 9.76752 16.1522C10.3136 16.3552 10.7475 16.7446 10.9737 17.2346C11.1433 17.6022 11.1433 18.0681 11.1433 19C11.1433 19.9319 11.1433 20.3978 10.9737 20.7654C10.7475 21.2554 10.3136 21.6448 9.76752 21.8478C9.35795 22 8.83874 22 7.80031 22H5.57166C4.53323 22 4.01402 22 3.60445 21.8478C3.05838 21.6448 2.62451 21.2554 2.39831 20.7654C2.22867 20.3978 2.22867 19.9319 2.22867 19Z" stroke="black" stroke-width="1.5"/>
<path d="M15.6006 16C15.6006 14.1144 15.6006 13.1716 16.2534 12.5858C16.9062 12 17.9568 12 20.0579 12C22.1591 12 23.2097 12 23.8625 12.5858C24.5153 13.1716 24.5153 14.1144 24.5153 16V18C24.5153 19.8856 24.5153 20.8284 23.8625 21.4142C23.2097 22 22.1591 22 20.0579 22C17.9568 22 16.9062 22 16.2534 21.4142C15.6006 20.8284 15.6006 19.8856 15.6006 18V16Z" stroke="black" stroke-width="1.5"/>
<path d="M15.6006 5C15.6006 4.06812 15.6006 3.60218 15.7702 3.23463C15.9964 2.74458 16.4303 2.35523 16.9764 2.15224C17.386 2 17.9052 2 18.9436 2H21.1723C22.2107 2 22.7299 2 23.1395 2.15224C23.6855 2.35523 24.1194 2.74458 24.3456 3.23463C24.5152 3.60218 24.5153 4.06812 24.5153 5C24.5153 5.93188 24.5152 6.39782 24.3456 6.76537C24.1194 7.25542 23.6855 7.64477 23.1395 7.84776C22.7299 8 22.2107 8 21.1723 8H18.9436C17.9052 8 17.386 8 16.9764 7.84776C16.4303 7.64477 15.9964 7.25542 15.7702 6.76537C15.6006 6.39782 15.6006 5.93188 15.6006 5Z" stroke="black" stroke-width="1.5"/>
</svg>
