<svg width="25" height="24" viewBox="0 0 25 24" fill="none" xmlns="http://www.w3.org/2000/svg">
<path d="M5.49168 11.491C5.4182 12.887 5.50267 14.373 4.25544 15.3084C3.67495 15.7438 3.33331 16.427 3.33331 17.1527C3.33331 18.1508 4.11511 19 5.13331 19H19.5333C20.5515 19 21.3333 18.1508 21.3333 17.1527C21.3333 16.427 20.9917 15.7438 20.4112 15.3084C19.1639 14.373 19.2484 12.887 19.1749 11.491C18.9834 7.85223 15.9771 5 12.3333 5C8.68948 5 5.68319 7.85222 5.49168 11.491Z" stroke="#A6A6A6" stroke-width="1.5" stroke-linecap="round" stroke-linejoin="round"/>
<path d="M10.8333 3.125C10.8333 3.95343 11.5049 5 12.3333 5C13.1617 5 13.8333 3.95343 13.8333 3.125C13.8333 2.29657 13.1617 2 12.3333 2C11.5049 2 10.8333 2.29657 10.8333 3.125Z" stroke="#A6A6A6" stroke-width="1.5"/>
<path d="M15.3333 19C15.3333 20.6569 13.9902 22 12.3333 22C10.6764 22 9.33331 20.6569 9.33331 19" stroke="#A6A6A6" stroke-width="1.5" stroke-linecap="round" stroke-linejoin="round"/>
</svg>
