<svg width="119" height="24" viewBox="0 0 119 24" fill="none" xmlns="http://www.w3.org/2000/svg">
<path d="M110.5 12C110.5 13.933 108.933 15.5 107 15.5C105.067 15.5 103.5 13.933 103.5 12C103.5 10.067 105.067 8.5 107 8.5C108.933 8.5 110.5 10.067 110.5 12Z" stroke="#A6A6A6" stroke-width="1.5"/>
<path d="M116.011 14.0965C116.533 13.9558 116.794 13.8854 116.897 13.7508C117 13.6163 117 13.3998 117 12.9669V11.0332C117 10.6003 117 10.3838 116.897 10.2493C116.794 10.1147 116.533 10.0443 116.011 9.90359C114.061 9.3776 112.84 7.33852 113.343 5.40088C113.482 4.868 113.551 4.60157 113.485 4.4453C113.419 4.28903 113.229 4.18135 112.85 3.96597L111.125 2.98674C110.753 2.7754 110.567 2.66973 110.4 2.69223C110.233 2.71473 110.044 2.90274 109.667 3.27874C108.208 4.73449 105.794 4.73443 104.334 3.27865C103.957 2.90264 103.769 2.71464 103.602 2.69213C103.435 2.66963 103.249 2.7753 102.877 2.98664L101.152 3.96588C100.773 4.18124 100.583 4.28892 100.517 4.44516C100.451 4.60141 100.52 4.86788 100.658 5.40081C101.161 7.33851 99.9397 9.37764 97.989 9.90361C97.4671 10.0443 97.2062 10.1147 97.1031 10.2492C97 10.3838 97 10.6003 97 11.0332V12.9669C97 13.3998 97 13.6163 97.1031 13.7508C97.2062 13.8854 97.4671 13.9558 97.989 14.0965C99.9394 14.6225 101.16 16.6616 100.657 18.5992C100.518 19.1321 100.449 19.3985 100.515 19.5548C100.581 19.7111 100.771 19.8188 101.15 20.0341L102.875 21.0134C103.247 21.2247 103.433 21.3304 103.6 21.3079C103.767 21.2854 103.956 21.0973 104.333 20.7213C105.793 19.2644 108.209 19.2643 109.669 20.7212C110.046 21.0973 110.234 21.2853 110.401 21.3078C110.568 21.3303 110.754 21.2246 111.127 21.0133L112.851 20.034C113.231 19.8187 113.42 19.711 113.486 19.5547C113.553 19.3984 113.483 19.132 113.345 18.5991C112.841 16.6616 114.061 14.6226 116.011 14.0965Z" stroke="#A6A6A6" stroke-width="1.5" stroke-linecap="round"/>
<path d="M50.1584 11.491C50.0849 12.887 50.1694 14.373 48.9221 15.3084C48.3416 15.7438 48 16.427 48 17.1527C48 18.1508 48.7818 19 49.8 19H64.2C65.2182 19 66 18.1508 66 17.1527C66 16.427 65.6584 15.7438 65.0779 15.3084C63.8306 14.373 63.9151 12.887 63.8416 11.491C63.6501 7.85223 60.6438 5 57 5C53.3562 5 50.3499 7.85222 50.1584 11.491Z" stroke="#A6A6A6" stroke-width="1.5" stroke-linecap="round" stroke-linejoin="round"/>
<path d="M55.5 3.125C55.5 3.95343 56.1716 5 57 5C57.8284 5 58.5 3.95343 58.5 3.125C58.5 2.29657 57.8284 2 57 2C56.1716 2 55.5 2.29657 55.5 3.125Z" stroke="#A6A6A6" stroke-width="1.5"/>
<path d="M60 19C60 20.6569 58.6569 22 57 22C55.3431 22 54 20.6569 54 19" stroke="#A6A6A6" stroke-width="1.5" stroke-linecap="round" stroke-linejoin="round"/>
<path d="M12 22C17.5228 22 22 17.5228 22 12C22 6.47715 17.5228 2 12 2C6.47715 2 2 6.47715 2 12C2 17.5228 6.47715 22 12 22Z" stroke="#A6A6A6" stroke-width="1.5"/>
<path d="M10 9C10 7.89543 10.8954 7 12 7C13.1046 7 14 7.89543 14 9C14 9.39815 13.8837 9.76913 13.6831 10.0808C13.0854 11.0097 12 11.8954 12 13V13.5" stroke="#A6A6A6" stroke-width="1.5" stroke-linecap="round"/>
<path d="M11.992 17H12.001" stroke="#A6A6A6" stroke-width="2" stroke-linecap="round" stroke-linejoin="round"/>
</svg>
