<?xml version="1.0" encoding="UTF-8"?>
<svg version="1.1" xmlns="http://www.w3.org/2000/svg" width="25" height="24">
<path d="M0 0 C2.74734671 2.15862956 3.60884015 4.07164255 4.75 7.375 C4.59985002 9.75305104 4.26469983 11.99157332 3.78125 14.32421875 C3.51669619 16.4874889 3.51669619 16.4874889 5.21875 18.01953125 C5.7240625 18.46683594 6.229375 18.91414063 6.75 19.375 C6.75 20.035 6.75 20.695 6.75 21.375 C3.78824877 20.76222388 2.36941217 20.12127478 -0.25 18.375 C-0.91 18.705 -1.57 19.035 -2.25 19.375 C-10.14622642 19.81367925 -10.14622642 19.81367925 -13.25 17.375 C-15.57455736 13.92824254 -16.25954896 11.92883955 -16.1875 7.75 C-15.16914676 4.08392833 -14.20128255 2.70025292 -11.25 0.375 C-7.69998488 -1.40000756 -3.76437925 -1.0456609 0 0 Z M-12.25 4.375 C-13.69430855 7.26361709 -13.62688506 9.17147701 -13.25 12.375 C-11.33333333 15.45833333 -11.33333333 15.45833333 -8.25 17.375 C-4.39789873 17.44141554 -2.25151995 17.24729157 0.6875 14.6875 C2.1113395 11.5885552 2.30153827 9.75317188 1.75 6.375 C-0.3755155 3.41589856 -0.3755155 3.41589856 -3.25 1.375 C-7.54387011 1.375 -8.83866484 1.97784556 -12.25 4.375 Z " fill="#A5A5A5" transform="translate(17.25,1.625)"/>
</svg>
