<svg width="25" height="24" viewBox="0 0 25 24" fill="none" xmlns="http://www.w3.org/2000/svg">
<path d="M15.8333 12C15.8333 13.933 14.2663 15.5 12.3333 15.5C10.4003 15.5 8.83331 13.933 8.83331 12C8.83331 10.067 10.4003 8.5 12.3333 8.5C14.2663 8.5 15.8333 10.067 15.8333 12Z" stroke="#A6A6A6" stroke-width="1.5"/>
<path d="M21.3443 14.0965C21.8662 13.9558 22.1272 13.8854 22.2302 13.7508C22.3333 13.6163 22.3333 13.3998 22.3333 12.9669V11.0332C22.3333 10.6003 22.3333 10.3838 22.2302 10.2493C22.1271 10.1147 21.8662 10.0443 21.3443 9.90358C19.3939 9.37759 18.1732 7.33851 18.6766 5.40087C18.815 4.86799 18.8842 4.60156 18.8181 4.44529C18.752 4.28902 18.5624 4.18134 18.183 3.96596L16.4583 2.98673C16.0861 2.77539 15.9 2.66972 15.733 2.69222C15.5659 2.71472 15.3775 2.90273 15.0005 3.27873C13.5413 4.73448 11.1269 4.73442 9.66765 3.27864C9.29074 2.90263 9.10229 2.71463 8.93524 2.69212C8.7682 2.66962 8.58208 2.77529 8.20984 2.98663L6.48515 3.96587C6.10584 4.18123 5.91618 4.28891 5.85009 4.44515C5.78399 4.6014 5.85318 4.86787 5.99156 5.4008C6.49468 7.3385 5.27303 9.37763 3.32233 9.9036C2.80043 10.0443 2.53948 10.1147 2.43639 10.2492C2.33331 10.3838 2.33331 10.6003 2.33331 11.0332V12.9669C2.33331 13.3998 2.33331 13.6163 2.43639 13.7508C2.53946 13.8854 2.80042 13.9558 3.32233 14.0965C5.27271 14.6225 6.49339 16.6616 5.99003 18.5992C5.8516 19.1321 5.78238 19.3985 5.84847 19.5548C5.91457 19.7111 6.10423 19.8188 6.48356 20.0341L8.20826 21.0134C8.58052 21.2247 8.76665 21.3304 8.93371 21.3079C9.10077 21.2854 9.28919 21.0973 9.66602 20.7213C11.126 19.2644 13.5421 19.2643 15.0022 20.7212C15.379 21.0973 15.5674 21.2853 15.7345 21.3078C15.9015 21.3303 16.0877 21.2246 16.4599 21.0133L18.1846 20.034C18.564 19.8187 18.7537 19.711 18.8197 19.5547C18.8858 19.3984 18.8166 19.132 18.6781 18.5991C18.1745 16.6616 19.3942 14.6226 21.3443 14.0965Z" stroke="#A6A6A6" stroke-width="1.5" stroke-linecap="round"/>
</svg>
